<?xml version="1.0" encoding="UTF-8" standalone="no"?>
<!DOCTYPE svg PUBLIC "-//W3C//DTD SVG 1.1//EN" "http://www.w3.org/Graphics/SVG/1.1/DTD/svg11.dtd">
<svg width="100%" height="100%" viewBox="0 0 512 512" version="1.1" xmlns="http://www.w3.org/2000/svg" xmlns:xlink="http://www.w3.org/1999/xlink" xml:space="preserve" xmlns:serif="http://www.serif.com/" style="fill-rule:evenodd;clip-rule:evenodd;stroke-linecap:round;stroke-linejoin:round;stroke-miterlimit:1.5;">
    <g transform="matrix(1,0,0,1,-2,0)">
        <g id="icon-512x512" transform="matrix(2,0,0,2,2,0)">
            <rect x="0" y="0" width="256" height="256" style="fill:none;"/>
            <g id="memory-watch" transform="matrix(0.5,0,0,0.5,0,0)">
                <g transform="matrix(0.964218,0,0,0.936015,18.3202,32.7605)">
                    <g id="background">
                        <path d="M512,19.7C512,-10.49 488.207,-35 458.9,-35L34.1,-35C4.793,-35 -19,-10.49 -19,19.7L-19,457.3C-19,487.49 4.793,512 34.1,512L458.9,512C488.207,512 512,487.49 512,457.3L512,19.7Z" style="fill:rgb(213,91,0);"/>
                    </g>
                </g>
                <g id="light-bulb" transform="matrix(1,0,0,1,0,6)">
                    <g transform="matrix(1.44766,-1.28143e-17,3.84428e-17,1.44766,70.6994,102.665)">
                        <g transform="matrix(0.498482,0.038935,-0.038935,0.498482,11.3292,-48.8264)">
                            <path d="M124.957,322.858C117.941,307.793 113.455,291.244 112.086,273.711C105.944,195.076 164.799,126.248 243.433,120.106C322.068,113.964 390.896,172.819 397.038,251.454C398.408,268.987 396.546,286.032 391.954,302.004L392,302C392,302 391.954,302.106 391.866,302.31C388.606,313.553 383.992,324.262 378.201,334.231C368.759,356.515 357.068,384.628 352,398.91C346.953,413.134 337,457 337,457L203.31,467.442C203.31,467.442 186.667,425.653 179.473,412.386C172.248,399.063 156.334,373.107 143.547,352.559C136.278,343.61 130.058,333.748 125.092,323.147C124.972,322.959 124.911,322.862 124.911,322.862L124.957,322.858Z" style="fill:rgb(213,91,0);stroke:white;stroke-width:31.89px;"/>
                        </g>
                        <g transform="matrix(0.894366,0,0,1,13.5211,0)">
                            <g transform="matrix(0.5,0,0,0.5,1,-3.81543)">
                                <path d="M183,443L325,443" style="fill:none;stroke:white;stroke-width:33.62px;"/>
                            </g>
                            <g transform="matrix(0.46831,0,0,0.46831,9.0493,35.8071)">
                                <path d="M183,443L325,443" style="fill:none;stroke:white;stroke-width:35.89px;"/>
                            </g>
                        </g>
                    </g>
                    <g transform="matrix(2.2698,0,0,3.74224,-1156.2,-174.028)">
                        <path d="M601.737,120.088C600.686,120.088 599.771,119.868 598.994,119.427C598.217,118.986 597.829,118.467 597.829,117.871L597.829,102.077C597.829,101.48 598.217,100.961 598.994,100.521C599.771,100.08 600.686,99.859 601.737,99.859L602.149,99.859C603.246,99.859 604.183,100.073 604.96,100.501C605.737,100.929 606.149,101.454 606.194,102.077L606.263,102.543C606.263,102.569 606.286,102.582 606.331,102.582C606.423,102.582 606.469,102.569 606.469,102.543C609.12,100.495 612.137,99.47 615.52,99.47C617.714,99.47 619.543,99.723 621.006,100.229C622.469,100.735 623.726,101.571 624.777,102.738C624.777,102.764 624.823,102.777 624.914,102.777C624.96,102.777 625.006,102.764 625.051,102.738C628.023,100.559 631.497,99.47 635.474,99.47C639.314,99.47 642.114,100.073 643.874,101.279C645.634,102.485 646.514,104.514 646.514,107.367L646.514,117.871C646.514,118.467 646.126,118.986 645.349,119.427C644.571,119.868 643.657,120.088 642.606,120.088L641.783,120.088C640.731,120.088 639.817,119.868 639.04,119.427C638.263,118.986 637.874,118.467 637.874,117.871L637.874,108.534C637.874,106.511 637.497,105.15 636.743,104.45C635.989,103.749 634.651,103.399 632.731,103.399C631.086,103.399 629.646,103.892 628.411,104.878C627.177,105.863 626.56,107.082 626.56,108.534L626.56,117.871C626.56,118.467 626.171,118.986 625.394,119.427C624.617,119.868 623.703,120.088 622.651,120.088L621.829,120.088C620.777,120.088 619.863,119.868 619.086,119.427C618.309,118.986 617.92,118.467 617.92,117.871L617.92,108.534C617.92,106.511 617.543,105.15 616.789,104.45C616.034,103.749 614.697,103.399 612.777,103.399C611.131,103.399 609.691,103.892 608.457,104.878C607.223,105.863 606.606,107.082 606.606,108.534L606.606,117.871C606.606,118.467 606.229,118.986 605.474,119.427C604.72,119.868 603.817,120.088 602.766,120.088L601.737,120.088Z" style="fill:white;fill-rule:nonzero;stroke:white;stroke-width:0.86px;stroke-linecap:butt;stroke-miterlimit:2;"/>
                    </g>
                </g>
                <g id="shiny">
                    <g transform="matrix(3.84428e-17,-0.318358,0.770384,-1.28143e-17,-85.2802,154.632)">
                        <path d="M183,443L325,443" style="fill:none;stroke:white;stroke-width:39.16px;"/>
                    </g>
                    <g transform="matrix(0.923366,-6.40714e-18,-1.92214e-17,0.923366,19.403,31.7619)">
                        <g transform="matrix(0.215979,-0.26875,0.650339,0.522639,27.2744,-86.3476)">
                            <path d="M183,443L325,443" style="fill:none;stroke:white;stroke-width:39.16px;"/>
                        </g>
                        <g transform="matrix(-0.215979,-0.26875,-0.650339,0.522639,485.192,-86.3476)">
                            <path d="M183,443L325,443" style="fill:none;stroke:white;stroke-width:39.16px;"/>
                        </g>
                    </g>
                </g>
            </g>
        </g>
    </g>
</svg>
